<?xml version="1.0"?>
<svg xmlns="http://www.w3.org/2000/svg" viewBox="0 0 80 80">
    <path style="line-height:normal;text-indent:0;text-align:start;text-decoration-line:none;text-decoration-style:solid;text-decoration-color:#000;text-transform:none;block-progression:tb;isolation:auto;mix-blend-mode:normal" d="M 5 14 L 5 68 L 40 68 L 40 66 L 7 66 L 7 23.533203 L 35.998047 43.742188 C 38.399524 45.416578 41.60015 45.415895 44.001953 43.742188 L 73 23.533203 L 73 51.34375 L 75 53.34375 L 75 14 L 5 14 z M 7 16 L 73 16 L 73 21.095703 L 42.859375 42.101562 C 41.139343 43.300829 38.86261 43.300829 37.142578 42.101562 L 7 21.095703 L 7 16 z M 12 28 A 1 1 0 0 0 11 29 A 1 1 0 0 0 12 30 A 1 1 0 0 0 13 29 A 1 1 0 0 0 12 28 z M 68 28 A 1 1 0 0 0 67 29 A 1 1 0 0 0 68 30 A 1 1 0 0 0 69 29 A 1 1 0 0 0 68 28 z M 12 32 A 1 1 0 0 0 11 33 A 1 1 0 0 0 12 34 A 1 1 0 0 0 13 33 A 1 1 0 0 0 12 32 z M 68 32 A 1 1 0 0 0 67 33 A 1 1 0 0 0 68 34 A 1 1 0 0 0 69 33 A 1 1 0 0 0 68 32 z M 12 36 A 1 1 0 0 0 11 37 A 1 1 0 0 0 12 38 A 1 1 0 0 0 13 37 A 1 1 0 0 0 12 36 z M 68 36 A 1 1 0 0 0 67 37 A 1 1 0 0 0 68 38 A 1 1 0 0 0 69 37 A 1 1 0 0 0 68 36 z M 12 40 A 1 1 0 0 0 11 41 A 1 1 0 0 0 12 42 A 1 1 0 0 0 13 41 A 1 1 0 0 0 12 40 z M 68 40 A 1 1 0 0 0 67 41 A 1 1 0 0 0 68 42 A 1 1 0 0 0 69 41 A 1 1 0 0 0 68 40 z M 12 44 A 1 1 0 0 0 11 45 A 1 1 0 0 0 12 46 A 1 1 0 0 0 13 45 A 1 1 0 0 0 12 44 z M 68 44 A 1 1 0 0 0 67 45 A 1 1 0 0 0 68 46 A 1 1 0 0 0 69 45 A 1 1 0 0 0 68 44 z M 62 45.585938 L 62 56 L 43 56 L 43 68 L 62 68 L 62 78.414062 L 78.414062 62 L 77.707031 61.292969 L 62 45.585938 z M 12 48 A 1 1 0 0 0 11 49 A 1 1 0 0 0 12 50 A 1 1 0 0 0 13 49 A 1 1 0 0 0 12 48 z M 64 50.414062 L 75.585938 62 L 64 73.585938 L 64 66 L 45 66 L 45 58 L 64 58 L 64 50.414062 z M 12 52 A 1 1 0 0 0 11 53 A 1 1 0 0 0 12 54 A 1 1 0 0 0 13 53 A 1 1 0 0 0 12 52 z M 12 56 A 1 1 0 0 0 11 57 A 1 1 0 0 0 12 58 A 1 1 0 0 0 13 57 A 1 1 0 0 0 12 56 z M 12 60 A 1 1 0 0 0 11 61 A 1 1 0 0 0 12 62 A 1 1 0 0 0 13 61 A 1 1 0 0 0 12 60 z M 16 60 A 1 1 0 0 0 15 61 A 1 1 0 0 0 16 62 A 1 1 0 0 0 17 61 A 1 1 0 0 0 16 60 z M 20 60 A 1 1 0 0 0 19 61 A 1 1 0 0 0 20 62 A 1 1 0 0 0 21 61 A 1 1 0 0 0 20 60 z M 24 60 A 1 1 0 0 0 23 61 A 1 1 0 0 0 24 62 A 1 1 0 0 0 25 61 A 1 1 0 0 0 24 60 z M 28 60 A 1 1 0 0 0 27 61 A 1 1 0 0 0 28 62 A 1 1 0 0 0 29 61 A 1 1 0 0 0 28 60 z M 32 60 A 1 1 0 0 0 31 61 A 1 1 0 0 0 32 62 A 1 1 0 0 0 33 61 A 1 1 0 0 0 32 60 z M 36 60 A 1 1 0 0 0 35 61 A 1 1 0 0 0 36 62 A 1 1 0 0 0 37 61 A 1 1 0 0 0 36 60 z"/>
</svg>
